<?xml version="1.0" encoding="utf-8"?>
<!-- Generator: Adobe Illustrator 19.0.0, SVG Export Plug-In . SVG Version: 6.00 Build 0)  -->
<svg version="1.1" id="Layer_1" xmlns="http://www.w3.org/2000/svg" xmlns:xlink="http://www.w3.org/1999/xlink" x="0px" y="0px"
	 viewBox="0 0 1024 1024" style="enable-background:new 0 0 1024 1024;" xml:space="preserve">
<style type="text/css">
	.st0{fill:url(#XMLID_2_);}
	.st1{fill:#FFCC33;}
	.st2{fill:#FFFFFF;}
</style>
<linearGradient id="XMLID_2_" gradientUnits="userSpaceOnUse" x1="46.3263" y1="46.4716" x2="977.2344" y2="977.3798">
	<stop  offset="0" style="stop-color:#66CCCC"/>
	<stop  offset="1" style="stop-color:#669999"/>
</linearGradient>
<path id="XMLID_79_" class="st0" d="M949.7,989.4H73.8c-20.6,0-37.3-16.7-37.3-37.3V71.7c0-20.6,16.7-37.3,37.3-37.3h875.9
	c20.6,0,37.3,16.7,37.3,37.3v880.5C987,972.8,970.3,989.4,949.7,989.4z"/>
<g id="XMLID_9_">
	<g id="XMLID_3_">
		<g id="XMLID_26_">
			<path id="path91088_7_" class="st1" d="M181.4,591l42.6,77.9l42.7-77.9H181.4z M539,591l-54,96.9h304.7l-91.2,172.8l-0.5,1
				c0,0,0,0,0,0.1c-9.5,18.5,0.7,31.2,14,31.2H787L933,620.6c0,0,0-0.1,0.1-0.1c9.6-18.5,1.8-29.5-11.6-29.5L539,591z"/>
			<path id="path91090_7_" class="st1" d="M563.6,77.7L224,698l-69.6-127.2l-61.5,37.4c0,0,0,0,0,0c-10.5,6.4-12.9,20.4-2.5,39.4
				l0,0l133.6,244.1l428.6-783c0,0,0-0.1,0.1-0.1c10.3-19,2.9-30.9-10.7-30.9L563.6,77.7z"/>
			<path id="path91092_7_" class="st1" d="M697.5,77.7L266.1,861c0,0,0,0.1-0.1,0.1c-10.3,19-0.6,31.8,12.9,31.8h75.8L787,108.5
				c0,0,0-0.1,0.1-0.1c10.4-19,3.3-30.7-10.3-30.7L697.5,77.7z"/>
		</g>
		<g id="XMLID_23_">
			<path id="path91088_6_" class="st1" d="M181.4,591l42.6,77.9l42.7-77.9H181.4z M539,591l-54,96.9h304.7l-91.2,172.8l-0.5,1
				c0,0,0,0,0,0.1c-9.5,18.5,0.7,31.2,14,31.2H787L933,620.6c0,0,0-0.1,0.1-0.1c9.6-18.5,1.8-29.5-11.6-29.5L539,591z"/>
			<path id="path91090_6_" class="st2" d="M563.6,77.7L224,698l-69.6-127.2l-61.5,37.4c0,0,0,0,0,0c-10.5,6.4-12.9,20.4-2.5,39.4
				l0,0l133.6,244.1l428.6-783c0,0,0-0.1,0.1-0.1c10.3-19,2.9-30.9-10.7-30.9L563.6,77.7z"/>
			<path id="path91092_6_" class="st1" d="M697.5,77.7L266.1,861c0,0,0,0.1-0.1,0.1c-10.3,19-0.6,31.8,12.9,31.8h75.8L787,108.5
				c0,0,0-0.1,0.1-0.1c10.4-19,3.3-30.7-10.3-30.7L697.5,77.7z"/>
		</g>
	</g>
	<path id="path91094" class="st2" d="M482.5,700.8l-60.9,96.9h170.5l-28.6,50.4l-1.5,2.6l0,0.1c-9.1,17.6,3.2,29.2,17.8,29.2h84.7
		L754,730.3c10.6-18.3,2.9-29.4-12.1-29.4L482.5,700.8z"/>
</g>
</svg>
